<mxfile host="app.diagrams.net" modified="2023-07-11T05:50:57.509Z" agent="Mozilla/5.0 (Windows NT 10.0; Win64; x64) AppleWebKit/537.36 (KHTML, like Gecko) Chrome/92.0.4515.131 Safari/537.36 SLBrowser/8.0.1.4031 SLBChan/25" version="21.6.1" etag="LnizcDoS19gqECVL6Xw7" type="github">
  <diagram name="第 1 页" id="SbO_TQyrm8ch00KElJ9_">
    <mxGraphModel>
      <root>
        <mxCell id="0" />
        <mxCell id="1" parent="0" />
      </root>
    </mxGraphModel>
  </diagram>
</mxfile>
